<svg xmlns="http://www.w3.org/2000/svg" xmlns:xlink="http://www.w3.org/1999/xlink" version="1.1" x="0px" y="0px" viewBox="0 0 100 125" enable-background="new 0 0 100 100" xml:space="preserve"><path d="M50,5C25.1,5,5,25.1,5,50c0,4.8,0.8,9.5,2.2,13.8c15.8,4.7,33.7-1.9,33.7-1.9l2.3-0.8c0.9-0.3,2,0.1,2.5,0.9l5.2,9.3  c0.5,0.8,0.4,1.7-0.3,2c-0.6,0.2-2.7,1-2.7,1s-17.7,5-35.7,0.1C20.2,86.8,34.1,95,50,95c24.9,0,45-20.1,45-45S74.9,5,50,5z M40.7,35  l-7.3,0.7l8.7,10.6l-10.6-8.7l-0.7,7.3l-0.7-7.3l-10.6,8.7l8.7-10.6L20.9,35l7.3-0.7l-8.7-10.6l10.6,8.7l0.7-7.3l0.7,7.3l10.6-8.7  l-8.7,10.6L40.7,35z M59.5,70.4l-3.7,1.3c-0.9,0.3-2.1-0.1-2.5-1L48,61.4c-0.5-0.8-0.1-1.8,0.8-2.1l2.2-0.8c0.9-0.3,2.1,0,2.7,0.8  l6.4,8.9C60.6,69.2,60.4,70.1,59.5,70.4z M63.9,67.7c-0.8,0.3-1.9,0-2.5-0.8L54.9,58c-0.6-0.8,0.5-2,1-2.2s1.4,0.3,1.9,1.1l6.5,8.8  C64.9,66.5,64.7,67.4,63.9,67.7z M83.8,49.7c-0.5,0.8-1,2.3-1,3.2l-0.4,10.5c0,1-0.5,2.4-1.1,3.2l-2.6,3.7c-0.5,0.8-1.3,0.8-1.8,0  l-3.7-6.2c-0.5-0.8-1.6-1.2-2.5-0.7l-2.4,1.2c-0.9,0.4-2,0.2-2.6-0.6l-6.1-8.6c-0.6-0.8-0.3-1.9,0.5-2.4l2.3-1.4  c0.8-0.5,1-1.6,0.4-2.3l-6-8.1c-0.6-0.8-0.3-1.6,0.6-1.9l3.2-0.9c0.9-0.3,2.5-0.2,3.4,0.1l10.4,3.3c0.9,0.3,2.4,0.3,3.3,0l12.4-4.2  c0.9-0.3,1.2,0.1,0.7,0.9L83.8,49.7z"/><text x="0" y="115" fill="#000000" font-size="5px" font-weight="bold" font-family="'Helvetica Neue', Helvetica, Arial-Unicode, Arial, Sans-serif">Created by Wes Breazell</text><text x="0" y="120" fill="#000000" font-size="5px" font-weight="bold" font-family="'Helvetica Neue', Helvetica, Arial-Unicode, Arial, Sans-serif">from the Noun Project</text></svg>