<svg xmlns="http://www.w3.org/2000/svg" data-name="Слой 1" viewBox="0 0 128 160" x="0px" y="0px"><title>Монтажная область 65</title><path d="M43.28,107.6a9.18,9.18,0,0,0-15.92-4.9,16.21,16.21,0,0,0-9.61-1,10.61,10.61,0,0,0-4.67-3.84,11.85,11.85,0,0,0,.85-4.43A11.94,11.94,0,0,0,2,81.55a2,2,0,0,0,0,4,7.94,7.94,0,0,1,7.93,7.93A7.87,7.87,0,0,1,8.49,98a2,2,0,0,0,1.38,3.13,6.51,6.51,0,0,1,5.06,3.75h0a8.72,8.72,0,0,1,.76,2.73,2,2,0,0,0,4,0,8.54,8.54,0,0,0-.31-2.09A12.22,12.22,0,0,1,27,107a2,2,0,0,0,2.71-.73,5.15,5.15,0,0,1,9.34.91,8.74,8.74,0,0,0-3.91,1.16,2,2,0,0,0,2.12,3.39,7,7,0,0,1,3.79-.54A6.47,6.47,0,0,1,39.95,124a2,2,0,0,0,0,4,10.47,10.47,0,0,0,3.33-20.4Z"/><path d="M126,81.55A11.93,11.93,0,0,0,114.93,97.9a10.61,10.61,0,0,0-4.67,3.84,16.2,16.2,0,0,0-9.61,1,9.18,9.18,0,0,0-15.92,4.9A10.47,10.47,0,0,0,88.05,128a2,2,0,0,0,0-4A6.47,6.47,0,0,1,87,111.15a2,2,0,0,0,1.67-2.07v-.24a5.17,5.17,0,0,1,8.55-3.92,13.7,13.7,0,0,0-2.69,3.4,2,2,0,1,0,3.5,1.94,9.74,9.74,0,0,1,3-3.3,12.22,12.22,0,0,1,9.6-1,2,2,0,0,0,2.43-1.08,6.51,6.51,0,0,1,5.06-3.75l.07,0h.11a5.71,5.71,0,0,1,3,.3,2,2,0,0,0,1.54-3.69,9.31,9.31,0,0,0-3.9-.68,7.85,7.85,0,0,1-.86-3.56A7.94,7.94,0,0,1,126,85.55a2,2,0,0,0,0-4Z"/><path d="M82.54,46.8c0-.51,0-1,0-1.55,0-10.92-4.12-24.56-8.85-34a1.69,1.69,0,0,0-.37-.72C70.1,4.25,66.62,0,64,0c-3.37,0-7,5.77-9.51,10.76a1.66,1.66,0,0,0-.13.26c-.9,1.81-1.65,3.49-2.18,4.74-4.29,10.13-6.74,20.88-6.74,29.5,0,.52,0,1,0,1.55-6.35,4.66-8,7.94-8,22.37a32.74,32.74,0,0,0,1.87,11.21,2,2,0,0,0,3.14.78l9.53-8a24.64,24.64,0,0,0,2.55,3.53,2,2,0,0,0,1.5.68H62v2.31a2,2,0,0,0,4,0V77.31h5.94a2,2,0,0,0,1.5-.68A24.64,24.64,0,0,0,76,73.11l9.53,8a2,2,0,0,0,3.14-.78,32.74,32.74,0,0,0,1.87-11.21C90.54,54.73,88.89,51.46,82.54,46.8ZM64,4c.87.44,2.25,2.18,3.82,4.82-1.07-.09-2.32-.13-3.8-.13s-2.81.05-3.89.14C61.7,6.2,63.1,4.45,64,4Zm-6.24,9.23A27.07,27.07,0,0,1,64,12.73a27.93,27.93,0,0,1,6.16.52c4.08,8.31,8.4,20.84,8.4,32a67.25,67.25,0,0,1-.65,9.34c-.8-.08-1.73-.14-2.78-.2-2.5-.15-5.69-.23-9.13-.26V47.82a2,2,0,0,0-4,0v6.32c-3.44,0-6.63.12-9.13.26-1,.06-2,.12-2.78.2a67.25,67.25,0,0,1-.65-9.34C49.44,34,53.69,21.53,57.74,13.28ZM42.21,76.14a33.78,33.78,0,0,1-.75-7c0-11.36.89-14.54,4.27-17.51.16,1.83.39,3.62.69,5.36h0a2,2,0,0,0,.15.74,51.3,51.3,0,0,0,3.54,11.7ZM57,73.31c-2.79-3.48-4.93-8.68-6.21-14.75,2-.19,5.86-.39,11.22-.43V73.31Zm14,0H66V58.13c5.36,0,9.2.23,11.22.43C75.94,64.64,73.8,69.83,71,73.31Zm14.78,2.83L77.9,69.48a51.3,51.3,0,0,0,3.54-11.7,2,2,0,0,0,.15-.74h0c.3-1.74.53-3.53.69-5.36,3.38,3,4.27,6.15,4.27,17.51A33.78,33.78,0,0,1,85.79,76.14Z"/><path d="M64,85.19a2,2,0,0,0-2,2V116.5a2,2,0,0,0,4,0V87.19A2,2,0,0,0,64,85.19Z"/><path d="M56.23,80.63a2,2,0,0,0-2,2V95.75a2,2,0,0,0,4,0V82.63A2,2,0,0,0,56.23,80.63Z"/><path d="M71.77,80.63a2,2,0,0,0-2,2V95.75a2,2,0,0,0,4,0V82.63A2,2,0,0,0,71.77,80.63Z"/><path d="M64,41.27a8.89,8.89,0,1,0-8.89-8.89A8.9,8.9,0,0,0,64,41.27ZM64,27.5a4.89,4.89,0,1,1-4.89,4.89A4.89,4.89,0,0,1,64,27.5Z"/><text x="0" y="143" fill="#000000" font-size="5px" font-weight="bold" font-family="'Helvetica Neue', Helvetica, Arial-Unicode, Arial, Sans-serif">Created by LAFS</text><text x="0" y="148" fill="#000000" font-size="5px" font-weight="bold" font-family="'Helvetica Neue', Helvetica, Arial-Unicode, Arial, Sans-serif">from the Noun Project</text></svg>